<?xml version="1.0" standalone="no"?>
<!DOCTYPE svg PUBLIC "-//W3C//DTD SVG 20010904//EN"
 "http://www.w3.org/TR/2001/REC-SVG-20010904/DTD/svg10.dtd">
<svg version="1.0" xmlns="http://www.w3.org/2000/svg"
 width="512.000000pt" height="513.000000pt" viewBox="0 0 512.000000 513.000000"
 preserveAspectRatio="xMidYMid meet">

<g transform="translate(0.000000,513.000000) scale(0.100000,-0.100000)"
fill="#000000" stroke="none">
<path d="M750 2573 c1 -2013 3 -2555 13 -2542 7 8 327 417 711 907 l700 892
697 0 697 0 408 1638 c224 900 409 1643 412 1650 3 9 -364 12 -1817 12 l-1821
0 0 -2557z m3257 2260 c-3 -5 -71 -277 -152 -605 l-147 -598 -879 0 -879 0 0
-150 0 -150 840 0 c462 0 840 -3 840 -7 0 -5 -67 -273 -148 -598 l-148 -590
-650 -3 -650 -2 -26 -28 c-20 -21 -351 -442 -945 -1201 -10 -13 -12 405 -13
1962 l0 1977 1481 0 c814 0 1478 -3 1476 -7z"/>
</g>
</svg>
