<?xml version="1.0" standalone="no"?>
<!DOCTYPE svg PUBLIC "-//W3C//DTD SVG 20010904//EN"
 "http://www.w3.org/TR/2001/REC-SVG-20010904/DTD/svg10.dtd">
<svg version="1.0" xmlns="http://www.w3.org/2000/svg"
 width="512.000000pt" height="512.000000pt" viewBox="0 0 512.000000 512.000000"
 preserveAspectRatio="xMidYMid meet">

<g transform="translate(0.000000,512.000000) scale(0.100000,-0.100000)"
fill="#000000" stroke="none">
<path d="M655 5114 c-11 -2 -45 -9 -75 -15 -217 -44 -429 -224 -522 -444 -56
-133 -53 -12 -53 -2095 0 -2083 -3 -1962 53 -2095 93 -219 290 -387 522 -446
82 -21 3878 -21 3960 0 274 70 491 287 561 561 21 82 21 3878 0 3960 -59 230
-227 429 -441 520 -140 59 19 54 -2070 56 -1053 1 -1924 0 -1935 -2z m3796
-304 c180 -34 325 -179 359 -359 14 -74 14 -3708 0 -3782 -34 -180 -179 -325
-359 -359 -74 -14 -3708 -14 -3782 0 -180 34 -325 179 -359 359 -14 74 -14
3708 0 3782 33 176 179 324 351 358 65 13 3723 13 3790 1z"/>
<path d="M3971 4499 c-227 -44 -391 -278 -353 -505 32 -196 180 -344 376 -376
289 -48 556 219 508 508 -42 255 -281 422 -531 373z m159 -309 c45 -23 80 -80
80 -130 0 -50 -35 -107 -80 -130 -21 -11 -53 -20 -70 -20 -50 0 -107 35 -130
80 -25 50 -25 90 0 140 37 73 124 99 200 60z"/>
<path d="M2370 3895 c-287 -40 -550 -173 -761 -384 -456 -456 -527 -1158 -172
-1696 88 -133 245 -290 378 -378 257 -169 570 -248 868 -219 323 32 600 163
828 391 456 456 527 1158 172 1696 -88 133 -245 290 -378 378 -278 183 -607
258 -935 212z m333 -296 c415 -62 750 -354 865 -754 160 -552 -165 -1132 -723
-1293 -552 -160 -1132 165 -1293 723 -190 657 309 1325 996 1334 46 1 116 -4
155 -10z"/>
</g>
</svg>
