<?xml version="1.0" standalone="no"?>
<!DOCTYPE svg PUBLIC "-//W3C//DTD SVG 20010904//EN"
 "http://www.w3.org/TR/2001/REC-SVG-20010904/DTD/svg10.dtd">
<svg version="1.0" xmlns="http://www.w3.org/2000/svg"
 width="512.000000pt" height="512.000000pt" viewBox="0 0 512.000000 512.000000"
 preserveAspectRatio="xMidYMid meet">

<g transform="translate(0.000000,512.000000) scale(0.100000,-0.100000)"
fill="#000000" stroke="none">
<path d="M655 5114 c-11 -2 -45 -9 -75 -15 -217 -44 -429 -224 -522 -444 -56
-133 -53 -12 -53 -2095 0 -2083 -3 -1962 53 -2095 93 -219 290 -387 522 -446
82 -21 3878 -21 3960 0 274 70 491 287 561 561 21 82 21 3878 0 3960 -59 230
-227 429 -441 520 -140 59 19 54 -2070 56 -1053 1 -1924 0 -1935 -2z m3796
-304 c180 -34 325 -179 359 -359 14 -74 14 -3708 0 -3782 -34 -180 -179 -325
-359 -359 -74 -14 -3708 -14 -3782 0 -180 34 -325 179 -359 359 -14 74 -14
3708 0 3782 33 176 179 324 351 358 65 13 3723 13 3790 1z"/>
<path d="M910 3770 l0 -450 450 0 450 0 0 450 0 450 -450 0 -450 0 0 -450z
m600 0 l0 -150 -150 0 -150 0 0 150 0 150 150 0 150 0 0 -150z"/>
<path d="M910 1960 l0 -1060 450 0 450 0 0 1060 0 1060 -450 0 -450 0 0 -1060z
m600 0 l0 -760 -150 0 -150 0 0 760 0 760 150 0 150 0 0 -760z"/>
<path d="M2110 1960 l0 -1060 450 0 450 0 0 550 c0 532 1 552 20 590 23 45 80
80 130 80 50 0 107 -35 130 -80 19 -38 20 -58 20 -590 l0 -550 450 0 450 0 0
626 c0 584 -1 632 -20 722 -43 210 -137 381 -291 528 -35 33 -86 75 -112 93
-68 46 -199 105 -282 127 -124 33 -365 22 -477 -21 -14 -6 -18 -2 -18 19 l0
26 -450 0 -450 0 0 -1060z m600 610 l0 -151 121 92 c205 155 289 194 441 205
247 18 490 -149 591 -406 44 -112 47 -157 47 -647 l0 -463 -150 0 -150 0 0
399 c0 229 -4 421 -10 452 -35 186 -184 330 -374 361 -231 38 -461 -126 -506
-361 -6 -31 -10 -223 -10 -452 l0 -399 -150 0 -150 0 0 760 0 760 150 0 150 0
0 -150z"/>
</g>
</svg>
