<?xml version="1.0" standalone="no"?>
<!DOCTYPE svg PUBLIC "-//W3C//DTD SVG 20010904//EN"
 "http://www.w3.org/TR/2001/REC-SVG-20010904/DTD/svg10.dtd">
<svg version="1.0" xmlns="http://www.w3.org/2000/svg"
 width="512.000000pt" height="512.000000pt" viewBox="0 0 512.000000 512.000000"
 preserveAspectRatio="xMidYMid meet">

<g transform="translate(0.000000,512.000000) scale(0.100000,-0.100000)"
fill="#000000" stroke="none">
<path d="M655 4504 c-11 -2 -45 -9 -75 -15 -217 -44 -429 -224 -522 -444 -55
-132 -53 -64 -53 -1485 0 -1421 -2 -1353 53 -1485 93 -219 290 -387 522 -446
82 -21 3878 -21 3960 0 274 70 491 287 561 561 21 82 21 2658 0 2740 -59 230
-227 429 -441 520 -140 59 19 54 -2070 56 -1053 1 -1924 0 -1935 -2z m3796
-304 c180 -34 325 -179 359 -359 14 -74 14 -2488 0 -2562 -34 -180 -179 -325
-359 -359 -74 -14 -3708 -14 -3782 0 -180 34 -325 179 -359 359 -14 74 -14
2488 0 2562 33 176 179 324 351 358 65 13 3723 13 3790 1z"/>
<path d="M1810 2546 c0 -559 2 -1016 4 -1016 6 0 1779 1019 1788 1028 6 6
-1737 984 -1783 1000 -5 2 -9 -393 -9 -1012z m742 263 c238 -132 436 -243 440
-247 6 -6 -861 -512 -877 -512 -3 0 -5 225 -5 500 0 275 2 500 5 500 2 0 199
-108 437 -241z"/>
</g>
</svg>
